<svg xmlns="http://www.w3.org/2000/svg" xmlns:xlink="http://www.w3.org/1999/xlink" viewBox="0 0 570 523"><defs><style>.a{fill:url(#a);}.b{fill:url(#b);}</style><linearGradient id="a" x1="279.57" y1="296.18" x2="423.38" y2="213.16" gradientUnits="userSpaceOnUse"><stop offset="0" stop-color="#36bdba"/><stop offset="0.93" stop-color="#39d8aa"/></linearGradient><linearGradient id="b" x1="152.23" y1="330.17" x2="270.22" y2="212.18" gradientUnits="userSpaceOnUse"><stop offset="0.2" stop-color="#2576f4"/><stop offset="1" stop-color="#3298da"/></linearGradient></defs><title>transparent background - primary - negative - gardient</title><path class="a" d="M365,320l57,57H366l-94-94h58.16a47,47,0,0,0,0-94H311.2l-47-47H328a94,94,0,0,1,94,94C422,274.12,405.2,304,365,320Z"/><path class="b" d="M201,199l-57-57h56.05l94,94H235.89a47,47,0,1,0,0,94H254.8l47,47H238a94,94,0,0,1-94-94C144,244.88,160.8,215,201,199Z"/></svg>